Coordinates
version=1
nRows=22
nColumns=18
inDegrees=yes

Units are S.I. units (second, meters, Newtons, ...)
If the header above contains a line with 'inDegrees', this indicates whether rotational values are in degrees (yes) or radians (no).

endheader
time	ground_thorax_rot_x	ground_thorax_rot_y	ground_thorax_rot_z	ground_thorax_tx	ground_thorax_ty	ground_thorax_tz	clav_prot	clav_elev	scapula_abduction	scapula_elevation	scapula_upward_rot	scapula_winging	plane_elv	shoulder_elv	axial_rot	elbow_flexion	pro_sup
      5.95000000	      3.27413936	     -0.72442075	     -8.47376182	     -0.00422114	      0.00436438	     -0.00023281	    -24.21795400	     -5.80123376	    -15.42726098	     -5.07099180	     12.18328250	      6.14432522	    -27.84990210	     14.44845526	     59.86472648	      0.00000000	     34.32000000
      5.96000000	      3.36864626	     -0.79164546	     -8.58669753	     -0.00402618	      0.00419834	     -0.00014305	    -24.21341213	     -5.76306355	    -15.49989581	     -5.00814049	     12.05783812	      6.16054604	    -27.93419371	     14.49002730	     59.86130799	      0.00000000	     34.32000000
      5.97000000	      3.29466046	     -0.17236654	     -8.24611620	     -0.00450863	      0.00450178	     -0.00054112	    -24.37257335	     -5.90817156	    -15.99349583	     -5.01063487	     11.60694472	      6.32206544	    -29.58007396	     15.04163925	     59.90988448	      0.00000000	     34.32000000
      5.98000000	      3.39149114	     -0.22246561	     -8.33657330	     -0.00443136	      0.00436036	     -0.00019683	    -24.36694603	     -5.89463752	    -16.03023728	     -4.97941506	     11.53024826	      6.33557285	    -29.65912182	     15.04453138	     59.90912963	      0.00000000	     34.32000000
      5.99000000	      3.34920403	      0.03014121	     -8.19541554	     -0.00456866	      0.00467908	     -0.00034255	    -24.48782230	     -5.89715404	    -15.88479612	     -5.15368981	     12.15174267	      6.18549588	    -34.16239973	     14.32538849	     65.85007555	      0.00000000	     34.32000000
      6.00000000	      3.27679791	      0.00229221	     -8.24050675	     -0.00446271	      0.00466678	     -0.00053510	    -24.46531143	     -5.81471773	    -15.95556113	     -5.04699326	     11.99385967	      6.19311684	    -34.27045666	     14.12338339	     65.83602817	      0.00000000	     34.32000000
      6.01000000	      3.34317984	     -0.03866830	     -8.29986729	     -0.00428029	      0.00479085	     -0.00065440	    -24.45348737	     -5.79805813	    -15.99276997	     -5.00841688	     11.89953614	      6.20989326	    -34.31069714	     14.08285037	     65.82888202	      0.00000000	     34.32000000
      6.02000000	      3.40531922	     -0.05806225	     -8.36281034	     -0.00413629	      0.00466050	     -0.00058489	    -24.43863899	     -5.78158757	    -16.02600524	     -4.96912103	     11.80282748	      6.22734868	    -34.35586055	     14.05438742	     65.82221090	      0.00000000	     34.32000000
      6.03000000	      3.47683070	     -0.07996026	     -8.42565164	     -0.00408584	      0.00442743	     -0.00036738	    -24.42716810	     -5.76941333	    -16.05686269	     -4.93662862	     11.71859869	      6.24336230	    -34.40114383	     14.05921744	     65.81627024	      0.00000000	     34.32000000
      6.04000000	      3.38462150	      0.37095264	     -8.30375478	     -0.00441500	      0.00460241	     -0.00062550	    -24.59984249	     -6.03094892	    -16.39751508	     -5.09919628	     11.52900398	      6.38387253	    -35.90646628	     14.40423006	     65.84455988	      0.00000000	     34.32000000
      6.05000000	      3.45471124	      0.31800474	     -8.35519047	     -0.00438589	      0.00443695	     -0.00049223	    -24.59632196	     -6.02163013	    -16.43008149	     -5.07453292	     11.46426935	      6.39604153	    -35.93840987	     14.41556352	     65.84304665	      0.00000000	     34.32000000
      6.06000000	      3.51875689	      0.28402477	     -8.38575135	     -0.00431192	      0.00434289	     -0.00047081	    -24.59296400	     -6.02459351	    -16.45363866	     -5.06238043	     11.41086200	      6.41002567	    -35.96432698	     14.42783697	     65.84302544	      0.00000000	     34.32000000
      6.07000000	      3.56575615	      0.27674991	     -8.40124673	     -0.00421772	      0.00432331	     -0.00047413	    -24.59191593	     -6.03841430	    -16.47155517	     -5.06209532	     11.36996732	      6.42503347	    -35.98366419	     14.46695480	     65.84810122	      0.00000000	     34.32000000
      6.08000000	      3.56612198	      0.27773367	     -8.40060047	     -0.00410767	      0.00430699	     -0.00048316	    -24.59177936	     -6.03881023	    -16.47130601	     -5.06235466	     11.36982665	      6.42521730	    -35.98357867	     14.46699593	     65.84815513	      0.00000000	     34.32000000
      6.09000000	      3.57867159	      0.58487110	     -8.32203374	     -0.00417819	      0.00451941	     -0.00065517	    -24.66768852	     -6.15591577	    -16.67540898	     -5.10930496	     11.18831462	      6.51154548	    -36.02857226	     14.73026039	     65.85557345	      0.00000000	     34.32000000
      6.10000000	      3.59503987	      0.65181513	     -8.28833170	     -0.00410016	      0.00441533	     -0.00053929	    -24.66015826	     -6.18490564	    -16.64896878	     -5.13451408	     11.20051802	      6.51969873	    -36.01843569	     14.70839469	     65.85482484	      0.00000000	     34.32000000
      6.11000000	      3.67671329	      0.88034484	     -8.33855858	     -0.00412461	      0.00438138	     -0.00054093	    -24.65518404	     -6.23214249	    -16.61547617	     -5.17744850	     11.22562041	      6.53169586	    -36.03273309	     14.78791445	     65.84214135	      0.00000000	     34.32000000
      6.12000000	      3.66199242	      0.95016847	     -8.29202485	     -0.00405201	      0.00454858	     -0.00058387	    -24.65170116	     -6.25206915	    -16.59076650	     -5.19940584	     11.25089150	      6.53318857	    -36.01495985	     14.75425233	     65.83962834	      0.00000000	     34.32000000
      6.13000000	      3.66535908	      1.63195736	     -8.34462756	     -0.00418524	      0.00452289	     -0.00092231	    -25.16950048	     -6.11487373	    -17.55343301	     -5.10420957	     11.16761735	      6.48882645	    -35.41890678	     14.50045857	     65.58831594	      0.00000000	     34.32000000
      6.14000000	      3.65856809	      1.66472916	     -8.30811514	     -0.00413250	      0.00472377	     -0.00116499	    -25.16231352	     -6.13162426	    -17.53757238	     -5.11650987	     11.16691009	      6.49538992	    -35.40335845	     14.44625373	     65.58609289	      0.00000000	     34.32000000
      6.15000000	      3.67186075	      1.68372112	     -8.28885090	     -0.00412747	      0.00472342	     -0.00123824	    -25.15391160	     -6.14844385	    -17.53008004	     -5.12385273	     11.14770852	      6.50669860	    -35.39607153	     14.39368323	     65.58395133	      0.00000000	     34.32000000
      6.16000000	      3.69560288	      1.70216383	     -8.28126583	     -0.00414639	      0.00461582	     -0.00114918	    -25.14434473	     -6.16597579	    -17.52152787	     -5.13112309	     11.12647297	      6.51872616	    -35.39429385	     14.35651958	     65.58272061	      0.00000000	     34.32000000
